<svg xmlns="http://www.w3.org/2000/svg" version="1.1" xmlns:xlink="http://www.w3.org/1999/xlink" xmlns:svgjs="http://svgjs.com/svgjs" width="100" height="100"><svg xmlns="http://www.w3.org/2000/svg" fill="none" viewBox="0 0 100 100">
  <g clip-path="url(#a)">
    <path fill="#DC2626" d="M50 0C22.395 0 0 22.392 0 50a49.812 49.812 0 0 0 12.622 33.206l23.322-27.608 16.031-24.835-9.335-4.715-13.514 12.08c-1.206 1.213-3.182 1.11-4.388-.208-1.224-1.213-1.102-3.189.21-4.402L39.895 20c.98-.884 2.308-.988 3.514-.433l17.92 9.012a57.693 57.693 0 0 1 5.384 4.714l6.032 11.768 12.535-7.47c1.416-.884 3.409-.45 4.283 1.092.874 1.421.437 3.397-1.102 4.28L73.41 51.977c-.542.329-1.101.45-1.643.45-1.102 0-2.098-.554-2.64-1.438l-6.591-10.33-10.664 16.708 11.765 2.738c1.312.225 2.308 1.11 2.85 2.322.437 1.196.332 2.635-.437 3.727l-13.41 21.213c-1.205 1.75-3.513 2.2-5.279 1.213-1.975-1.11-2.64-3.518-1.538-5.494l10.437-16.378-15.263-3.518L18.69 88.96C27.255 95.875 38.147 100 50 100c27.622 0 50-22.392 50-50S77.622 0 50 0Zm21.538 28.457c-4.615 0-8.356-3.743-8.356-8.353 0-4.61 3.741-8.354 8.356-8.354 4.616 0 8.357 3.744 8.357 8.354 0 4.61-3.741 8.354-8.356 8.354Z"/>
  </g>
  <defs>
    <clipPath id="SvgjsClipPath1000">
      <path fill="#fff" d="M0 0h100v100H0z"/>
    </clipPath>
  </defs>
</svg><style>@media (prefers-color-scheme: light) { :root { filter: none; } }
</style></svg>